<?xml version="1.0" encoding="utf-8"?>
<!-- Generator: Adobe Illustrator 16.0.0, SVG Export Plug-In . SVG Version: 6.00 Build 0)  -->
<!DOCTYPE svg PUBLIC "-//W3C//DTD SVG 1.1//EN" "http://www.w3.org/Graphics/SVG/1.1/DTD/svg11.dtd">
<svg version="1.1" id="图层_1" xmlns="http://www.w3.org/2000/svg" xmlns:xlink="http://www.w3.org/1999/xlink" x="0px" y="0px"
	 width="595.28px" height="841.89px" viewBox="0 0 595.28 841.89" enable-background="new 0 0 595.28 841.89" xml:space="preserve">
<g>
	<g>
		<path d="M101.206,336c-3.783-33.117,44.313-26.717,59.262-9.997c2.153,2.409,5.677-1.14,3.535-3.535
			C146.236,302.595,91.877,298.105,96.206,336C96.567,339.165,101.572,339.2,101.206,336L101.206,336z"/>
	</g>
</g>
<g>
	<g>
		<path d="M191.062,336.591c16.971-19.783,50.611-20.929,63.133,4.2c1.438,2.886,5.75,0.353,4.317-2.523
			c-13.891-27.878-51.984-27.362-70.985-5.211C185.439,335.489,188.959,339.042,191.062,336.591L191.062,336.591z"/>
	</g>
</g>
<g>
	<g>
		<path d="M103.354,399.018c3.076,17.505,15.59,32.141,29.456,42.525c14.342,10.742,31.065,17.903,49.258,16.871
			c15.475-0.878,29.67-8.137,42.749-15.894c15.154-8.987,29.674-19.15,46.318-25.286c2.999-1.105,1.703-5.939-1.329-4.821
			c-14.512,5.35-27.562,13.516-40.655,21.614c-12.956,8.015-26.282,15.912-41.458,18.713c-16.892,3.118-33.43-2.738-47.4-11.968
			c-14.979-9.896-28.921-24.883-32.119-43.084C107.618,394.517,102.8,395.865,103.354,399.018L103.354,399.018z"/>
	</g>
</g>
</svg>
